/* XPM */
static char * samurai_graph_archive_xpm[] = {
"48 48 254 2",
"  	c None",
". 	c #999900",
"+ 	c #FAFAEE",
"@ 	c #868686",
"# 	c #000000",
"$ 	c #C0C0C0",
"% 	c #E5E5DA",
"& 	c #F3F3E7",
"* 	c #FFFE99",
"= 	c #FEFD99",
"- 	c #BBB573",
"; 	c #E4D98E",
"> 	c #F8ED9A",
", 	c #F7EB9A",
"' 	c #F6E99A",
") 	c #F6E79A",
"! 	c #F5E69A",
"~ 	c #FDFB99",
"{ 	c #A49C66",
"] 	c #DBD189",
"^ 	c #F5E49B",
"/ 	c #F4E39B",
"( 	c #F3E19A",
"_ 	c #FEFD9A",
": 	c #FCF999",
"< 	c #DBCE8A",
"[ 	c #F3E29A",
"} 	c #F2DF9B",
"| 	c #F2DD9B",
"1 	c #070603",
"2 	c #FEFB9A",
"3 	c #FCF89A",
"4 	c #FCF799",
"5 	c #FBF599",
"6 	c #A29867",
"7 	c #F2DE9A",
"8 	c #F1DB9B",
"9 	c #F0D99B",
"0 	c #13120E",
"a 	c #FCF79A",
"b 	c #FBF49A",
"c 	c #FAF39A",
"d 	c #D9CA8A",
"e 	c #F1DC9B",
"f 	c #CCCC66",
"g 	c #101004",
"h 	c #F9F29A",
"i 	c #F9F099",
"j 	c #F9EF99",
"k 	c #A09367",
"l 	c #D8C78A",
"m 	c #181811",
"n 	c #FAF399",
"o 	c #F9F19A",
"p 	c #D7C48A",
"q 	c #FBF69A",
"r 	c #FAF19A",
"s 	c #F8EE99",
"t 	c #0A0A02",
"u 	c #F7EC9A",
"v 	c #FBF699",
"w 	c #FCF59A",
"x 	c #F9F299",
"y 	c #F8EB9A",
"z 	c #878744",
"A 	c #B6B65B",
"B 	c #101009",
"C 	c #A6A69E",
"D 	c #DFDFD4",
"E 	c #E6D17A",
"F 	c #DBC772",
"G 	c #E2CE79",
"H 	c #686D4A",
"I 	c #E1D18E",
"J 	c #EFDF98",
"K 	c #11100B",
"L 	c #A8A666",
"M 	c #E0DE88",
"N 	c #B2A563",
"O 	c #E5C263",
"P 	c #8B753C",
"Q 	c #C6AD58",
"R 	c #B3B364",
"S 	c #B8AC73",
"T 	c #12120A",
"U 	c #E6C364",
"V 	c #68572D",
"W 	c #A38946",
"X 	c #0F0D07",
"Y 	c #564825",
"Z 	c #4B8B60",
"` 	c #A7A465",
" .	c #B4A966",
"..	c #E5C163",
"+.	c #CFB05A",
"@.	c #38321B",
"#.	c #E1BE61",
"$.	c #806C37",
"%.	c #090906",
"&.	c #312914",
"*.	c #A49D56",
"=.	c #E0DB89",
"-.	c #DBA045",
";.	c #120F07",
">.	c #B59B4F",
",.	c #534623",
"'.	c #5A562E",
").	c #203D2A",
"!.	c #315A3E",
"~.	c #FEFE9A",
"{.	c #B3A564",
"].	c #D4933B",
"^.	c #453C1E",
"/.	c #261F10",
"(.	c #182619",
"_.	c #356344",
":.	c #FDFC99",
"<.	c #F8F8F8",
"[.	c #E9C565",
"}.	c #5C4E28",
"|.	c #1B180C",
"1.	c #0A130C",
"2.	c #25442F",
"3.	c #414731",
"4.	c #A69A69",
"5.	c #161415",
"6.	c #A6A366",
"7.	c #DBA146",
"8.	c #CE8833",
"9.	c #E7C666",
"0.	c #E5C363",
"a.	c #E4AB4E",
"b.	c #B59146",
"c.	c #19150B",
"d.	c #746834",
"e.	c #132A1E",
"f.	c #447F58",
"g.	c #458058",
"h.	c #B0A270",
"i.	c #DECF8D",
"j.	c #100E11",
"k.	c #FEFB99",
"l.	c #D3CB83",
"m.	c #F4EC96",
"n.	c #DFB357",
"o.	c #E2BB5E",
"p.	c #CF842E",
"q.	c #AC853E",
"r.	c #4F3F1F",
"s.	c #183F2F",
"t.	c #B5A873",
"u.	c #B4B06E",
"v.	c #E5E08C",
"w.	c #B5A766",
"x.	c #DAA64B",
"y.	c #193929",
"z.	c #E3CF91",
"A.	c #FDFC9A",
"B.	c #DFD789",
"C.	c #D7A047",
"D.	c #4A4122",
"E.	c #5A4B27",
"F.	c #AE9249",
"G.	c #FDFA9A",
"H.	c #A6A066",
"I.	c #B7A668",
"J.	c #59633A",
"K.	c #040C09",
"L.	c #122016",
"M.	c #726948",
"N.	c #1C1C14",
"O.	c #918D58",
"P.	c #D69B43",
"Q.	c #050906",
"R.	c #010202",
"S.	c #625A3F",
"T.	c #CDBB84",
"U.	c #E9D496",
"V.	c #9E9962",
"W.	c #A5A066",
"X.	c #F9EE9A",
"Y.	c #CD8833",
"Z.	c #E6C263",
"`.	c #192E20",
" +	c #010101",
".+	c #3A3525",
"++	c #E5D192",
"@+	c #DDAB4F",
"#+	c #1C2216",
"$+	c #1A3323",
"%+	c #0E1B13",
"&+	c #524A35",
"*+	c #D0BF85",
"=+	c #EDD798",
"-+	c #466845",
";+	c #322E20",
">+	c #B8A776",
",+	c #A69F66",
"'+	c #DDD589",
")+	c #598E5D",
"!+	c #CABB66",
"~+	c #E1CD91",
"{+	c #A59E66",
"]+	c #A9AE64",
"^+	c #6C9E67",
"/+	c #AA762C",
"(+	c #DED489",
"_+	c #529666",
":+	c #434229",
"<+	c #29331E",
"[+	c #BAA978",
"}+	c #455432",
"|+	c #000002",
"1+	c #13130D",
"2+	c #7D7251",
"3+	c #C0AF7C",
"4+	c #DDD289",
"5+	c #597547",
"6+	c #182B1E",
"7+	c #040403",
"8+	c #A6976A",
"9+	c #27251A",
"0+	c #161E15",
"a+	c #181E13",
"b+	c #181F14",
"c+	c #142319",
"d+	c #15140E",
"e+	c #030302",
"f+	c #979700",
"g+	c #EFE296",
"h+	c #CABF80",
"i+	c #8E855A",
"j+	c #847B53",
"k+	c #847954",
"l+	c #837954",
"m+	c #665E41",
"n+	c #C7B480",
"o+	c #919100",
"p+	c #EDDE96",
"q+	c #D1C285",
"r+	c #5C533B",
"s+	c #8D8D00",
"t+	c #E4DE8C",
"u+	c #B1A96F",
"v+	c #F1E098",
"w+	c #EDDB98",
"x+	c #B5A374",
"y+	c #C9B682",
"z+	c #FAF199",
"A+	c #CDC380",
"B+	c #DFCC8F",
"C+	c #DFCB90",
"D+	c #585800",
"E+	c #6E6E00",
"                                                                                                ",
"                                                                                                ",
"                                                                                                ",
"                                                                                                ",
"                                                                                                ",
"      . . . . . . . . . . . . . . . . .                                                         ",
"    . + + + + @ @ # $ # @ @ % & + + + + .                                                       ",
"  . + * * * = $ $ @ $ @ $ $ - ; > , ' ) ! .                                                     ",
". + * * = = ~ @ @ # $ # @ @ { ] ' ' ! ^ / ( .                                                   ",
". + _ = ~ : : $ $ @ $ @ $ $ { < ! ^ / [ ( } | . . . . . . . . . . . . . . . . . . . . . . . 1   ",
". + 2 : 3 4 5 @ @ # $ # @ @ 6 < ^ [ ( 7 | | 8 8 9 9 9 9 9 9 9 9 9 9 9 9 9 9 9 9 9 9 9 9 9 9 . 0 ",
". + : a 5 b c $ $ @ $ @ $ $ 6 d ( } | e f f f f f f f f f f f f f f f f f f f f f f f f f f . g ",
". + 5 b h i j @ @ # $ # @ @ k l 7 e 8 f + + + + + + + + + + + + + + + + + + + + + + + + + + . m ",
". + n o j > , $ $ @ $ @ $ $ k p e 8 f + 3 4 4 q q 5 b n c c r o j j s s > > , , ' ' ' ) ) ! . t ",
". + j > u ' ' @ @ # $ # @ @ k p 9 f + 3 a a v w 5 b b n x o o o j s > > > y , ' ' ' ) ! ! ^ . m ",
". f f f f f f $ $ @ $ @ $ $ z A f + : a 4 v 5 b 5 c c n o i o j s s > u , , ' ' ' ) ) ! ^ ^ . B ",
". + + + + + + @ @ # $ # @ @ C D + : : 4 v E E F G G G G G G G G G G G G G G G G G H I J ^ ^ . K ",
". + * * * * = $ $ @ $ @ $ $ L M 3 4 4 a 5 N O O O O O O O O O O O O O O P Q O O R H S I ^ / . T ",
". + * * * * = @ @ # @ # @ @ L M : a v a 5 N O U O O O O O O O O V W O O X Y O R Z H 6 d ^ [ . B ",
". + * * * = = $ $ # $ # $ $ ` M 4 a a 5 5  .O U O O O O O ..O +.X @.#.$.%.&.*.Z Z H 6 d / [ . B ",
". + * = = = = @ @ # $ # @ @ ` =.4 q 5 5 b N -.O O O O O O O O P ;.>.O ,.# ,.'.).!.H 6 d [ [ . X ",
". + ~.* = = = $ # # $ # # $ ` =.4 5 5 b n {.].O O O O O O O U @.Y O $.^./.X (.)._.H 6 d ( ( . K ",
". + = = = = :.@ <.# $ # <.# ` =.5 5 b c n  .].-.O O O O [.O P # V O P }.|.# 1.2.Z 3.4.d ( ( . 5.",
". + _ = = = ~ @ $ # $ # $ # 6.=.5 b c n n {.7.8...9.0...a.b.@.c.c.O d.1 V /.e.f.g.3.h.i.( } . j.",
". + = = k.k.@ <.$ # $ # $ @ # l.m.b c x x {.7.8.n.9.U o.p.q.>.}./.O W &.>.r.s.Z Z 3.t.I ( } . B ",
". + = = k.k.@ <.$ # $ # $ @ # u.v.b c r r w.7.O -.9.9.x.8.x.O &.^.O #.P O @.y.Z Z 3.t.z.} } . B ",
". + A.~ ~ ~ @ <.$ # $ # $ @ # 6.B.c o x r {.7.O 8.#.0.8.C.8.O D.E.O [.F.D.%.).Z Z 3.t.z.} } . K ",
". + = k.k.G.@ <.$ @ # @ $ @ # H.B.c r o j I.7.O ].-.n.8.O 8.O >.E.O O O J.K.!.Z L.B M.l e } . N.",
". + ~ ~ G.: @ <.$ @ O.@ $ @ # H.B.o i o j I.7.O o.8.P.O O 8...O W V O O Z Z Z Z Q.R.S.T.U.7 . N.",
". + ~ G.: : @ <.$ @ V.@ $ @ # W.B.o j j X.I.7.O O P.Y.O O 8.o.O Z.$.$.O Z Z Z Z `. +.+h.++| . N.",
". + G.: : 3 @ <.$ @ @ @ $ @ # H.B.j j s > I.@+O O o.O O O 8.o.O O O V #+$+%+$+).L.# # &+*+=+. N.",
". + ~ G.: 4 @ <.$ $ $ $ $ @ # W.B.j X.s > I.Q R O O O O O @+8.O O O +.-+s.# # # # # # ;+>+++. N.",
". + : 3 4 4 @ <.$ $ $ $ $ @ # ,+'+X.> > > I.)+)+!+O O O R O 8.O 8.O !+Z Z Z Z Z L.#  +S.>+~+. N.",
". + : 3 a q @ <.$ # # # $ @ # {+'+s > > > I.)+)+)+!+O ]+^+>.x.O C.n.Z Z /+Z Z Z %+# # .+h.z.. N.",
". + 3 4 4 v @ <.$ # O.@ $ @ # {+(+s > u , I.)+)+)+_+R _+)+)+/+F.Z /+Z /+:+<+%+# R.# # &+[+~+. N.",
". + a a v v @ <.$ # V.@ $ @ # {+'+> > , , I.)+)+)+)+)+)+)+)+/+)+)+)+/+}+|+# Q.`.1.# 1+2+3+++. N.",
". + a 4 v 5 @ <.$ # W.@ $ @ # { 4+u , , ' I.5+5+5+5+5+5+5+5+d.5+5+5+d.5+R.# 6+Z 1.7+&+8+*+=+. N.",
". + q 5 5 5 @ <.$ # W.@ $ @ # { 4+, , , ' l.9+0+a+b+b+b+b+0+c+0+b+0+c+#+d+e+K.Q.# 7+N..+S.z.f+N.",
". + w 5 5 b @ <.$ # {+@ $ @ # { ] , ' ' ' g+h+i+j+j+j+j+j+k+j+l+l+k+l+m+.+1 # # # # %.1+d+n+o+N.",
". + 5 b b n @ <.$ @ @ @ $ @ # { ] , ' ' ' ) p+i.q+q+q+q+q+q+*+*+*+*+*+k+9+9+&+:+9+.+2+i+r+[+s+N.",
". + 5 5 n c t+# $ $ $ $ $ # i+u+; ' ' ' ) ) ! [ v+J J J J p+p+w+w+w+w+U.q+[+x+>+>+x+[+y+T.*+o+N.",
". + n n n z+m.# @ @ @ @ @ # V.A+g+' ' ) ! ! ^ ^ ^ / / ( ( ( } } } 7 | 8 U.B+B+z.~+C+z.U.U.U.f+N.",
". f . . . . . s+# # # # # D+E+s+. . . . . . . . . . . . . . . . . . . . . . . . . . . . . . . N.",
"N.N.N.N.N.N.N.N.m d+1+1+1+d+m N.N.N.N.N.N.N.N.N.N.N.N.N.N.N.N.N.N.N.N.N.N.N.N.N.N.N.N.N.N.N.N.  ",
"                                                                                                ",
"                                                                                                ",
"                                                                                                ",
"                                                                                                "};
