/* XPM */
static char * samurai_graph_xpm[] = {
"48 48 255 2",
"  	c None",
". 	c #E5C263",
"+ 	c #90B287",
"@ 	c #4F9365",
"# 	c #C6A856",
"$ 	c #A88E49",
"% 	c #64A17E",
"& 	c #2E2714",
"* 	c #000000",
"= 	c #0F0D07",
"- 	c #89743B",
"; 	c #D5C06D",
"> 	c #509467",
", 	c #4C4121",
"' 	c #D6B55C",
") 	c #998142",
"! 	c #99B585",
"~ 	c #1F1A0D",
"{ 	c #6AA582",
"] 	c #7A6735",
"^ 	c #DDC168",
"/ 	c #51956A",
"( 	c #A3B782",
"_ 	c #DCAC50",
": 	c #C06A19",
"< 	c #5C4E28",
"[ 	c #3D341A",
"} 	c #547B61",
"| 	c #3A6C4A",
"1 	c #D69D44",
"2 	c #B44C00",
"3 	c #B79B4F",
"4 	c #101D14",
"5 	c #4A895E",
"6 	c #E2BB5D",
"7 	c #BA5B0C",
"8 	c #DFB357",
"9 	c #1A3122",
"0 	c #2A4E36",
"a 	c #D9A44A",
"b 	c #C3711F",
"c 	c #CF8E38",
"d 	c #6B5B2E",
"e 	c #496751",
"f 	c #447F58",
"g 	c #CA802B",
"h 	c #C67825",
"i 	c #121F17",
"j 	c #15271B",
"k 	c #203B28",
"l 	c #D3963E",
"m 	c #BD6213",
"n 	c #3F7651",
"o 	c #B75306",
"p 	c #0C0A05",
"q 	c #7F6C37",
"r 	c #050A07",
"s 	c #CC8731",
"t 	c #907A3E",
"u 	c #69592E",
"v 	c #C2A454",
"w 	c #463C1E",
"x 	c #DEBC60",
"y 	c #1B170C",
"z 	c #3E341B",
"A 	c #E4C163",
"B 	c #A78D48",
"C 	c #D0BF6F",
"D 	c #0B140D",
"E 	c #68582D",
"F 	c #E3C062",
"G 	c #5B4D28",
"H 	c #3C331A",
"I 	c #45543F",
"J 	c #E2C062",
"K 	c #E1BE61",
"L 	c #594C27",
"M 	c #927B3F",
"N 	c #1A160B",
"O 	c #BFA253",
"P 	c #E1BF61",
"Q 	c #80723F",
"R 	c #46825A",
"S 	c #284A33",
"T 	c #23422D",
"U 	c #0E1811",
"V 	c #020202",
"W 	c #010101",
"X 	c #6C5B2F",
"Y 	c #40361C",
"Z 	c #9CB382",
"` 	c #3F7550",
" .	c #4A8A5F",
"..	c #23412D",
"+.	c #040504",
"@.	c #D8B75E",
"#.	c #282111",
"$.	c #6A5A2E",
"%.	c #70A582",
"&.	c #4E9264",
"*.	c #4C8D61",
"=.	c #B3974D",
"-.	c #957E40",
";.	c #DABF67",
">.	c #54956D",
",.	c #4F9265",
"'.	c #346143",
").	c #9D8544",
"!.	c #272111",
"~.	c #A48B47",
"{.	c #A5B580",
"].	c #4E9163",
"^.	c #4B8C60",
"/.	c #050806",
"(.	c #917B3F",
"_.	c #0E0C06",
":.	c #78A985",
"<.	c #2F583D",
"[.	c #294C34",
"}.	c #386948",
"|.	c #2A4D35",
"1.	c #030303",
"2.	c #CBAC58",
"3.	c #443A1E",
"4.	c #050503",
"5.	c #110F08",
"6.	c #18291F",
"7.	c #192E20",
"8.	c #1B3222",
"9.	c #020302",
"0.	c #0B140E",
"a.	c #122117",
"b.	c #132218",
"c.	c #DBBA5F",
"d.	c #847039",
"e.	c #040806",
"f.	c #040705",
"g.	c #0E1911",
"h.	c #C6BE75",
"i.	c #BFBC78",
"j.	c #DFBD60",
"k.	c #2D2614",
"l.	c #182019",
"m.	c #3A6B4A",
"n.	c #447E57",
"o.	c #1E3827",
"p.	c #010201",
"q.	c #000100",
"r.	c #66A280",
"s.	c #589B73",
"t.	c #D2BF6E",
"u.	c #DDBB60",
"v.	c #487D60",
"w.	c #3E734F",
"x.	c #112016",
"y.	c #080F0A",
"z.	c #9E9A64",
"A.	c #E0C166",
"B.	c #BEBB77",
"C.	c #4E9164",
"D.	c #4C8E61",
"E.	c #417853",
"F.	c #4D9063",
"G.	c #3F7450",
"H.	c #1D3625",
"I.	c #1C3424",
"J.	c #213E2A",
"K.	c #070D09",
"L.	c #CBB86A",
"M.	c #6D8452",
"N.	c #74A986",
"O.	c #8AB088",
"P.	c #628652",
"Q.	c #68814C",
"R.	c #447E56",
"S.	c #050705",
"T.	c #7A946A",
"U.	c #826F32",
"V.	c #8CB087",
"W.	c #AAB881",
"X.	c #7AAB87",
"Y.	c #AC8141",
"Z.	c #BF772A",
"`.	c #61A07D",
" +	c #9B5E19",
".+	c #AE5006",
"++	c #7B7439",
"@+	c #4B8B5F",
"#+	c #315C3F",
"$+	c #030403",
"%+	c #A6B782",
"&+	c #55976E",
"*+	c #C1BD77",
"=+	c #9C5F1B",
"-+	c #886B2C",
";+	c #9B6728",
">+	c #D5A44C",
",+	c #CBBE72",
"'+	c #5C8A58",
")+	c #A15913",
"!+	c #8E6726",
"~+	c #946220",
"{+	c #49885D",
"]+	c #3C6F4C",
"^+	c #3D724E",
"/+	c #54976D",
"(+	c #DAC169",
"_+	c #5D9E79",
":+	c #519568",
"<+	c #B57D36",
"[+	c #D8C06B",
"}+	c #88743C",
"|+	c #A26A2B",
"1+	c #93B387",
"2+	c #8E5E1F",
"3+	c #4A5C36",
"4+	c #315337",
"5+	c #432C0E",
"6+	c #33250E",
"7+	c #599B75",
"8+	c #6FA684",
"9+	c #867239",
"0+	c #BD7023",
"a+	c #769A73",
"b+	c #AA8142",
"c+	c #67A381",
"d+	c #6F7D45",
"e+	c #5A461D",
"f+	c #010202",
"g+	c #559870",
"h+	c #9C5F1C",
"i+	c #966322",
"j+	c #69824D",
"k+	c #A7550D",
"l+	c #29462E",
"m+	c #010100",
"n+	c #060402",
"o+	c #020403",
"p+	c #558F5F",
"q+	c #050906",
"r+	c #050805",
"s+	c #060805",
"t+	c #192F20",
"u+	c #0C160F",
"v+	c #75783F",
"w+	c #0C0E09",
"x+	c #080A06",
"y+	c #060804",
"z+	c #010000",
"A+	c #070401",
"B+	c #2F4027",
"C+	c #3C704D",
"D+	c #142519",
"E+	c #020201",
"F+	c #182D1F",
"                                                                                                ",
"  . . . . . . . . . . . . . . . . . . . . . . . . . . . . . . . . . . . . + @ @                 ",
"  . . . . . . . . . . . . . . . . . . . . . . . . . . . . # $ . . . . . . % @ @                 ",
"  . . . . . . . . . . . . . . . . . . . . . . . . . . . . & * = - . . . ; > @ @                 ",
"  . . . . . . . . . . . . . . . . . . . . # * , ' . . . . ) * * = . . . ! @ @ @ *               ",
"  . . . . . . . . . . . . . . . . . . . . . & * ~ . . . . - * * , . . . { @ @ @ *               ",
"  . . . . . . . . . . . . . . . . . . . . ' * * * # . . . ] * * * * ] ^ / @ @ @ *               ",
"  . . . . . . . . . . . . . . . . . . . . - * * & . ' - , * * * * & ) ( @ @ @ @ *               ",
"  . _ : . . . . . . . . . . . . . . . . . & * * - . ' - < * * [ # . ' } | | @ @ *               ",
"  1 2 2 . . . . . . . . . . . . . . . . 3 * * & . . . . 3 * * , , ~ * * * * 4 5 *               ",
"  6 : 7 8 . . . . . . . . . . . . . . . < * * - . . # ] [ * * * * * * * 4 9 0 5 *               ",
"  . a b c . . . . . . . . . . . . . . # * * ~ $ [ = * * * ~ d & * = e f @ @ @ @ *               ",
"  . a g h . . . . . . . . . . . . . . < * * ] . - , [ < - d * * * * i j k | @ @ *               ",
"  . a l m 6 . . . . . . . . . . . . 3 * * * [ < ] . ' ] = * * * * * * * * * n @ *               ",
"  . a 6 : l . . . . . . . . l l . . & * = * * = $ 3 * * * * ~ d * * * 5 | n @ @ *               ",
"  8 c _ g g . . . . . . . _ o : . ] * p q * * * . . d * = ] . . * * r @ @ @ @ @ *               ",
"  6 l . l : 6 . . . . . . _ o s 3 * < t u * * [ . . ) * * * , . * * j @ @ @ @ @ *               ",
"  . a . 8 m 1 . . . . . . l 2 g # # . v w * * d . . . ) = * = . * * j @ @ @ @ @ *               ",
"  . a . . h g . . . . . . b : b . . . x y * * ] . . . < [ ) ' . * * j @ @ @ @ @ *               ",
"  . a . . c b . . . . . 6 2 a : . . . . z * * $ A A A < ~ B A C * * D @ @ @ @ @ *               ",
"  . a . . 8 m c . . . . l b 8 7 _ . . . E * * $ . . A F G * H I * * * @ @ @ @ @ *               ",
"  8 l . . . 2 2 . . . . h l . m a . . . # * * # . . A J K L * * * * * @ @ @ @ @ *               ",
"  8 s _ . . m : 1 . . . o 6 . g s . . . . M N O . . A P P P Q * * * r @ R S T U V W             ",
"  . a . . . . h b 6 . 1 b . . g g . . A . . X Y x . F F J J Z ` D * 0 @  ...+.V V W *           ",
"  . a . . . . _ : g . h c . . s s . . F . . @.#.$.A A A J J %.&.@ @ @ @ @ *.+.V W *             ",
"  . a . . . . . s b _ 7 8 . . 1 7 . . J A . . =.N -.A F J ;.>.,.@ @ @ @ @ '.V V W *             ",
"  . a . . . . . 6 b : m . . . _ 7 6 . J J A . . ).!.~.x J {.].,.@ @ @ @ @ ^./.V V W *           ",
"  6 1 . . . . . . 1 7 : . . . . : a . F F A . . . (._.Y $ :.].<.[.}. .@ @ @ |.1.V V V V V       ",
"  _ c _ . . . . . a 2 l . . . . : c . . A A . . . 2.3.4.5.6.7.8.* 9.0.a.b./.V V V W V V V       ",
"  . a . . . . . . . . . . . . . g g . . . . . . A c.d.V V e.f.g.* * * W V V V 9.W W V V V V     ",
"  . a h.i.. . . . . . . . . . . s g . . . . . A J j.c.k.l.m.n.o.* * p.q.V V V V W * * V V V     ",
"  . a r.s.t.. . . . . . . . . . l : . . . . . . A J P u.v.w.^.x.x.y.* * * * * W * * * V V       ",
"  . z.@ @ % A.. . . . . . . . . a m . . . . . . . A F B.C.D. .E.F.G.H.I.J.o.K.9.* * * W V       ",
"  L.M.@ @ @ N.. . . . . . . ( A.6 m a . . 8 2 s . . . O.@ P.2 Q.@ @ ].@ @ R.S.V * * * V V *     ",
"  T.U.P.@ @ @ V.. . . . . W.> X.. m 1 . . Y.2 Z.. . . `.@  +.+++@ @ @ @ @+#+$+V * * W W         ",
"  @ Q.@ @ @ @ > %+. . . h.&+@ @ ! s s . *+=+-+;+>+. ,+@ '+)+!+~+'+{+]+^+[.f.V V * * W *         ",
"  @ Q.@ @ @ @ @ /+i.. (+_+@ @ @ :+<+g [+}+++@ ~+|+6 1+@ 2+3+4+5+6+4 V 9.V V V p.* W * *         ",
"  @ Q.@ @ @ @ @ @ 7+t.8+@ @ @ @ @ 9+0+a+)+@ @ P.~+b+c+d+e+e.f+* * W V V V V W W * W * *         ",
"  @ Q.@ @ @ @ @ @ @ g+@ @ @ @ @ @ Q.h+ +P.@ @ @ U.i+j+k+l+* 9.* m+n+V * * * e.o+* W * *         ",
"  @ Q.@ @ @ p+@ @ p+@ @ @ p+@ @ p+Q..+ +p+@ @ p+p+~+.+U.| r q+y.r+m+m+s+I.t+u+o+* W * *         ",
"  Q.Q.Q.Q.Q.v+Q.Q.v+Q.Q.Q.v+Q.Q.v+!+2 !+v+Q.Q.v+Q.!+.+U.Q.w+V x+y+z+A+B+C+D+p.* W W *           ",
"  @ @ @ @ @ @ @ @ @ @ @ @ @ @ @ @ '+Q.@ @ @ @ @ @ '+P.@ @ f.V W o+E+* F+a.* * * V W             ",
"    * * * * * * * * * * * * * * * * * * * * * * * * * * * V V V W * * * * * * W V W * *         ",
"      * * * * * * * * * * * * * * * * * * * * * * * * * * V V V W * * * * V W * W W W W V V V   ",
"                                                                V W * * V W * W * * * * * W W   ",
"                                                          V V W V W * V V V V V W * *     V W   ",
"                                                        * W V W W W     V V V V V W             ",
"                                                                                                "};
