/* XPM */
static char * samurai_graph_property_xpm[] = {
"48 48 256 2",
"  	c None",
". 	c #777777",
"+ 	c #040404",
"@ 	c #FFFFFF",
"# 	c #969696",
"$ 	c #B2B2B2",
"% 	c #D7D7D7",
"& 	c #DDDCD8",
"* 	c #D5CAAB",
"= 	c #EADCB5",
"- 	c #E7D9B4",
"; 	c #9C8E69",
"> 	c #E2D8B5",
", 	c #B0CCB6",
"' 	c #CCD5CF",
") 	c #C2BBB0",
"! 	c #EBC766",
"~ 	c #E8C464",
"{ 	c #E5C263",
"] 	c #E6C364",
"^ 	c #EDC967",
"/ 	c #E6C363",
"( 	c #E4C163",
"_ 	c #BCA052",
": 	c #EFC563",
"< 	c #B0B366",
"[ 	c #529A6A",
"} 	c #92A598",
"| 	c #C3BDB2",
"1 	c #E9C666",
"2 	c #D1B05A",
"3 	c #978241",
"4 	c #DEBC60",
"5 	c #EAC765",
"6 	c #67572C",
"7 	c #0B0904",
"8 	c #F4CF6A",
"9 	c #91AA68",
"0 	c #4C986B",
"a 	c #3A6547",
"b 	c #BCBDBA",
"c 	c #CBCBCB",
"d 	c #C9AB57",
"e 	c #120E07",
"f 	c #443C1F",
"g 	c #000000",
"h 	c #554825",
"i 	c #C6B05E",
"j 	c #679C68",
"k 	c #284832",
"l 	c #DBDBDB",
"m 	c #F1CB67",
"n 	c #A58C48",
"o 	c #D9B85E",
"p 	c #88773B",
"q 	c #060502",
"r 	c #9F9E59",
"s 	c #519465",
"t 	c #2F4D38",
"u 	c #DDDDDD",
"v 	c #CB8935",
"w 	c #DBAA4F",
"x 	c #E6C566",
"y 	c #090804",
"z 	c #383119",
"A 	c #0D140F",
"B 	c #274A34",
"C 	c #C5BFB4",
"D 	c #D1923B",
"E 	c #D8A147",
"F 	c #E7C767",
"G 	c #756735",
"H 	c #1B170C",
"I 	c #1F3423",
"J 	c #24402D",
"K 	c #D08D37",
"L 	c #E6C465",
"M 	c #937B3F",
"N 	c #000101",
"O 	c #48845B",
"P 	c #A09C9C",
"Q 	c #DDAE53",
"R 	c #E0B65A",
"S 	c #E3B85A",
"T 	c #030303",
"U 	c #AE934B",
"V 	c #201F1B",
"W 	c #15271A",
"X 	c #D6A047",
"Y 	c #D59B42",
"Z 	c #E8C969",
"` 	c #E2C062",
" .	c #020201",
"..	c #57A16E",
"+.	c #549E6C",
"@.	c #E3BE60",
"#.	c #CA7E2A",
"$.	c #E0B458",
"%.	c #E6C061",
"&.	c #E2BB5D",
"*.	c #E5C465",
"=.	c #939453",
"-.	c #020707",
";.	c #2A4E37",
">.	c #E6C162",
",.	c #3F7550",
"'.	c #E2B457",
").	c #C7BA67",
"!.	c #0A0D0B",
"~.	c #4E9264",
"{.	c #0E1C14",
"].	c #010202",
"^.	c #404040",
"/.	c #CDCDCD",
"(.	c #E5C061",
"_.	c #4B9568",
":.	c #393939",
"<.	c #DFDEDE",
"[.	c #CEC8BB",
"}.	c #CC8530",
"|.	c #ECC665",
"1.	c #549C6B",
"2.	c #010201",
"3.	c #848C84",
"4.	c #DAA74C",
"5.	c #2B543A",
"6.	c #040604",
"7.	c #171717",
"8.	c #D4D4D5",
"9.	c #D8A248",
"0.	c #050A07",
"a.	c #6D6D6D",
"b.	c #D9C065",
"c.	c #ECC564",
"d.	c #439168",
"e.	c #060B08",
"f.	c #020403",
"g.	c #4C8D61",
"h.	c #7AA269",
"i.	c #EAC463",
"j.	c #E9C363",
"k.	c #D99F45",
"l.	c #6B824C",
"m.	c #5B8958",
"n.	c #A8A9AA",
"o.	c #C1C5BC",
"p.	c #747B43",
"q.	c #618A57",
"r.	c #E2C264",
"s.	c #57976A",
"t.	c #976B28",
"u.	c #529C6D",
"v.	c #F2F2F2",
"w.	c #489166",
"x.	c #EDB354",
"y.	c #B0853B",
"z.	c #58693D",
"A.	c #C0C0C0",
"B.	c #FBFBFB",
"C.	c #589A6A",
"D.	c #45996E",
"E.	c #AD7329",
"F.	c #2D2D2D",
"G.	c #F6F7F7",
"H.	c #FDFDFC",
"I.	c #E7E7E8",
"J.	c #FEFFFF",
"K.	c #73884E",
"L.	c #6D8C54",
"M.	c #698D57",
"N.	c #678F59",
"O.	c #FFFEFD",
"P.	c #FEFBF5",
"Q.	c #AFB4BA",
"R.	c #B2B4B8",
"S.	c #DCDBDA",
"T.	c #F2ECE4",
"U.	c #FEFEFE",
"V.	c #DADCDA",
"W.	c #2D452D",
"X.	c #2E442B",
"Y.	c #2A462F",
"Z.	c #FBEBCB",
"`.	c #FDE6B5",
" +	c #F7E0AE",
".+	c #ECEBE7",
"++	c #C3C5C7",
"@+	c #E4CB98",
"#+	c #EDD38B",
"$+	c #E0CFA2",
"%+	c #E0E0E1",
"&+	c #454545",
"*+	c #4E4E4E",
"=+	c #050505",
"-+	c #EBD2AF",
";+	c #F6DBA1",
">+	c #F8DEA4",
",+	c #F9E0A9",
"'+	c #F3F1ED",
")+	c #B1B2B6",
"!+	c #B6AC98",
"~+	c #F1D78E",
"{+	c #DAC18B",
"]+	c #7E7E7E",
"^+	c #060606",
"/+	c #595755",
"(+	c #615A50",
"_+	c #F4DBB1",
":+	c #F9E2AD",
"<+	c #C2BAA7",
"[+	c #FAFAFA",
"}+	c #FCE2AB",
"|+	c #FAE1A9",
"1+	c #E9CE86",
"2+	c #E5CA84",
"3+	c #E2CA8B",
"4+	c #DDDAD2",
"5+	c #FFE5AF",
"6+	c #D2D5DB",
"7+	c #B99D8B",
"8+	c #D6B67F",
"9+	c #E8CD7D",
"0+	c #E9EBEE",
"a+	c #D7BD98",
"b+	c #E0C392",
"c+	c #F9DFA6",
"d+	c #F4DFAD",
"e+	c #E0D5BD",
"f+	c #CEBDA3",
"g+	c #E1C587",
"h+	c #D4B782",
"i+	c #B9B5B1",
"j+	c #C29E87",
"k+	c #C39B7C",
"l+	c #F7DE9E",
"m+	c #F3D998",
"n+	c #C8A37E",
"o+	c #E6DCD3",
"p+	c #EDD497",
"q+	c #CBAC84",
"r+	c #DCD9CC",
"s+	c #BABCC2",
"t+	c #D0B6A9",
"u+	c #FCFAF9",
"v+	c #D2BFB5",
"w+	c #C4A89D",
"x+	c #C4BAB2",
"y+	c #B1ACAD",
"z+	c #E4D4CA",
"A+	c #B8B7B8",
"B+	c #C8C8CB",
"C+	c #D0CBCD",
"D+	c #BCC0C6",
"E+	c #FBFFFF",
"F+	c #E0E3E7",
"G+	c #C8CACE",
"                                                                                                ",
"                  . . . . . . . . . . . . . . . . . . . . . . . . . . . . +                     ",
"                  . @ @ @ @ @ @ @ @ @ @ @ @ @ @ @ @ @ @ @ @ @ @ @ @ @ @ . # +                   ",
"                  . @ @ @ @ @ @ @ @ @ @ @ @ @ @ @ @ @ @ @ @ @ @ @ @ @ @ . $ # +                 ",
"                  . @ @ @ @ @ @ @ @ @ @ @ @ @ @ @ @ @ @ @ @ @ @ @ @ @ @ . % $ # +               ",
"                  . @ @ @ @ @ @ @ @ @ @ @ @ @ @ @ @ @ @ @ @ @ @ @ @ @ @ . @ % $ # +             ",
"    & * = - - - - ; - - - - - - - - - = = - - > , ' @ @ @ @ @ @ @ @ @ @ . @ @ % $ # +           ",
"    ) ! ~ { { { { { { { { { ] ^ ~ / ( _ _ { : < [ } @ @ @ @ @ @ @ @ @ @ . @ @ @ % $ # +         ",
"    | { ~ { { { { { { { { 1 2 3 4 5 ^ 6 7 _ 8 9 0 a b # c # c # c # @ @ . @ @ @ @ % $ # +       ",
"    | ] ~ { { { { { { { { 5 d e f 4 8 6 g h i j [ k l @ @ @ @ @ @ @ @ @ . . . . . . . . . +     ",
"    | ( ~ { { { { { { { { m n g f o p e q h r s [ t u @ @ @ @ @ @ @ @ @ @ c c c c c c c c +     ",
"    | v w x { { { { { { / ^ h e 2 8 n 7 y 6 z A B t u @ @ @ @ @ @ @ @ @ @ @ @ @ @ @ @ @ c + $   ",
"    C D E F { { { { { { ^ _ y G 2 G z z H g I J a t u @ @ @ @ @ @ @ @ @ @ @ @ @ @ @ @ @ c + $   ",
"    C w K x { { { { L 1 ! h g p o M G f q N A I O t P $ $ $ $ $ $ $ $ $ $ $ $ $ $ $ $ @ c + $   ",
"    | Q K R L { { L Q S p T y H o U H V f q W a O t u @ @ @ @ @ @ @ @ @ @ @ @ @ @ @ @ @ c + $   ",
"    ) X Y w x { { Z K v h M z H ` U  .6 2 e B ..+.t u @ @ @ @ @ @ @ @ @ @ @ @ @ @ @ @ @ c + $   ",
"    C R S X x { ] @.#.X F o H z ~ ! 3 h _ e B [ [ t u @ @ @ @ @ @ @ @ @ @ @ @ @ @ @ @ @ c + $   ",
"    C $.%.D &.*.F E K Y 8 _ g 6 m 5 n M =.-.B [ ..;.P $ $ $ $ $ $ $ $ $ $ $ $ $ $ $ $ @ c + $   ",
"    | w >.v K Z @.K $.D ~ ] z 6 8 ~ 4 6 A g B s ,.J u @ @ @ @ @ @ @ @ @ @ @ @ @ @ @ @ @ c + $   ",
"    ) Y '.&.v @.w E L K &.^ U f o ! ^ ).J !.a ~.{.].^./.@ @ @ @ @ @ @ @ @ @ @ @ @ @ @ @ c + $   ",
"    C R (.F Q E E &.Z D $.L m M h 4 m < _.O s O A g :.<.@ @ @ @ @ @ @ @ @ @ @ @ @ @ @ @ c + $   ",
"    [.$.%.] x }.}.L Z Y Q L ~ ` 6 G |.9 _.[ 1.s I 2.V 3.$ $ $ $ $ $ $ $ $ $ $ $ $ $ $ @ c + $   ",
"    [.Y '.L x Q 4.L x w 4.x { ~ 5 6 f a 5.J a a k 6.g 7.8.@ @ @ @ @ @ @ @ @ @ @ @ @ @ @ c + $   ",
"    [.w o ~ { x x { ] R 9.x { { ! d z {.0.g g g g g g g a.@ @ @ @ @ @ @ @ @ @ @ @ @ @ @ c + $   ",
"    [.d j b.c.{ { { c.S X x ] F { m 9 d.;.e.{.{.f.g g T P @ @ @ @ @ @ @ @ @ @ @ @ @ @ @ c + $   ",
"    [.=.g.h.b.i.{ j.).&.k.L &.k.~ b.j l.m.O ~.[ J g g 7.n.$ $ $ $ $ $ $ $ $ $ $ $ $ $ @ c + $   ",
"    o.p.q.d.h.r.: < s.9 Y j.Y t.R ).s t.p u.g.a W g g !.. v.@ @ @ @ @ @ @ @ @ @ @ @ @ @ c + $   ",
"    o.m.s ~.w.9 ).s w._.3 x.3 O y.9 p.z.f I {.g g g g 7.A.B.@ @ @ @ @ @ @ @ @ @ @ @ @ @ c + $   ",
"    o.m.s _._._.C._._.D.p.E.m.D.l.p p.{.g g g !.A g g F.G.@ @ @ @ @ H.I.I.G.@ J.J.@ @ @ c + $   ",
"    b K.L.M.M.M.M.M.M.N.p t.N.M.L.E.l.{.g g W ,.W g !.b @ @ O.P.P.O.v.Q.n.R.S.T.v.B.U.@ c + $   ",
"    V.3.W.X.X.X.X.X.X.X.W.Y.X.X.W.W.W.A g g W W g g ^.A.u 8.Z.`. +Z..+++n.P @+#+$+%+B.@ c + $   ",
"      I.&+^.^.^.^.V ^.^.^.^.^.^.^.^.&+*+F.N g g g g g g =+*+-+;+>+,+'+% )+!+~+#+{+A.v.@ c + $   ",
"        U.U.U.U.U.. U.U.U.U.U.U.U.U.%+]+&+g ^+g g g ^+*+/+(+_+>+>+:+'+8.)+!+~+#+{+<+<.[+l + $   ",
"                  . @ @ $ $ $ $ $ $ # F.V :.]+/+:.^.]+@ Z.:+}+|+>+:+'+8.)+!+1+2+1+1+3+4+G.+ $   ",
"                  . @ @ @ @ @ @ @ @ @ @ @ @ @ @ @ @ @ @ `.5+}+|+>+>+T.6+)+7+8+8+2+1+9+C 0++ $   ",
"                  . @ @ @ @ @ @ @ @ @ @ @ @ @ @ @ @ @ @ a+b+,+|+c+;+d+e+f+{+g+1+g+h+8+i+0++ $   ",
"                  . @ @ @ @ @ @ @ @ @ @ @ @ @ @ @ @ @ @ j+k+@+}+c+>+l+m+m+m+~+~+g+n+k+i+0++ $   ",
"                  . @ @ $ $ $ $ $ $ $ $ $ $ $ $ $ $ $ @ T.o+|+}+c+p+;+m+m+#+#+~+#+q+P ++v.+ $   ",
"                  . @ @ @ @ @ @ @ @ @ @ @ @ @ @ @ @ @ @ @ r+;+c+b+n+b+l+p+q+q+3+1+!+s+I.[++ $   ",
"                  . @ @ @ @ @ @ @ @ @ @ @ @ @ @ @ @ @ @ @ o+n+q+k+t+a+l+p+7+7+n+n+!+8.[+u + $   ",
"                  . @ @ @ @ @ @ @ @ @ @ @ @ @ @ @ @ @ @ @ u+v+w+o+@ x+h+q+n.s+w+7+y+<.H.c + $   ",
"                  . @ @ $ $ $ $ $ $ $ $ $ $ $ $ $ $ $ @ @ @ U.H.@ @ z+j+j+A+I.%+B+8.v.U.c + $   ",
"                  . @ @ @ @ @ @ @ @ @ @ @ @ @ @ @ @ @ @ @ @ @ @ J.J.O.'+C+D+v.H.G.[+U.@ c + $   ",
"                  . @ @ @ @ @ @ @ @ @ @ @ @ @ @ @ @ @ @ @ @ @ @ @ E+@ @ F+G+v.@ @ @ @ @ c + $   ",
"                  . c c c c c c c c c c c c c c c c c c c c c c c c c c c c c c c c c c c + $   ",
"                  + + + + + + + + + + + + + + + + + + + + + + + + + + + + + + + + + + + + + $   ",
"                    $ $ $ $ $ $ $ $ $ $ $ $ $ $ $ $ $ $ $ $ $ $ $ $ $ $ $ $ $ $ $ $ $ $ $ $ $   ",
"                                                                                                "};
